#N canvas 291 196 1137 545.062 10;
#X text 93 187 ^;
#X obj 32 233 tgl 25 0 empty empty E 17 7 0 10 -261234 -1 -1 0 1;
#X obj 74 233 tgl 25 0 empty empty A 17 7 0 10 -262130 -1 -1 0 1;
#X obj 115 233 tgl 25 0 empty empty D 17 7 0 10 -204786 -1 -1 0 1;
#X obj 157 233 tgl 25 0 empty empty G 17 7 0 10 -204800 -1 -1 0 1;
#X obj 199 233 tgl 25 0 empty empty H 17 7 0 10 -203904 -1 -1 0 1;
#X obj 241 233 tgl 25 0 empty empty E 17 7 0 10 -232576 -1 -1 0 1;
#X symbolatom 32 267 4 0 0 0 - - -, f 4;
#X obj 32 187 ez-strings, f 35;
#X symbolatom 74 267 4 0 0 0 - - -, f 4;
#X symbolatom 115 267 4 0 0 0 - - -, f 4;
#X symbolatom 157 267 4 0 0 0 - - -, f 4;
#X symbolatom 199 267 4 0 0 0 - - -, f 4;
#X symbolatom 241 267 4 0 0 0 - - -, f 4;
#X obj 32 9 notein;
#X obj 48 75 expr ($f1>$f2)*$f1;
#X floatatom 153 52 5 0 0 0 - - -, f 5;
#X floatatom 32 99 5 0 0 0 - - -, f 5;
#X floatatom 73 99 5 0 0 0 - - -, f 5;
#X floatatom 115 99 5 0 0 0 - - -, f 5;
#X obj 153 22 tgl 15 1 empty empty empty 17 7 0 10 -262144 -1 -1 16
16;
#X text 431 73 pass through other MIDI;
#X obj 661 266 ctlin 64;
#X floatatom 661 308 5 0 0 0 - - -, f 5;
#X obj 661 288 spigot;
#X obj 725 266 tgl 15 1 empty empty empty 17 7 0 10 -262144 -1 -1 0
1;
#X obj 206 153 noteout;
#X obj 311 45 tgl 15 1 empty empty empty 17 7 0 10 -262144 -1 -1 1
1;
#X text 647 233 simulated bendin via sustain pedal (cc64), f 22;
#X obj 405 73 tgl 15 1 empty empty empty 17 7 0 10 -262144 -1 -1 1
1;
#X obj 405 181 midi-output;
#X msg 405 155 sysex 67 127 0 0 0 1 \$1;
#X obj 405 131 tgl 15 1 empty empty empty 17 7 0 10 -262144 -1 -1 127
127;
#X text 28 289 NOTE: use blind jack on phones out to disable direct
sound from the EZ-AG \; use local control on to enable hammer-ons
and pull-offs \, local control off makes it easier to play chords (capo+tuning
then select with +/-), f 49;
#X text 175 22 velocity threshold;
#X obj 32 120 pack f f f;
#X obj 66 31 t f f;
#X obj 93 53 <= 6;
#X obj 32 142 spigot;
#X obj 32 164 t a a;
#N canvas 555 198 450 300.062 pedal 0;
#X obj 16 12 inlet;
#X obj 16 177 bendout;
#X msg 16 36 \$1 200;
#X obj 16 78 / 127;
#X obj 16 58 line;
#X floatatom 16 122 5 0 0 0 - - -, f 5;
#X floatatom 72 78 5 0 0 0 - - -, f 5;
#X msg 72 58 4096;
#X msg 16 142 \$1 1 \, \$1 2 \, \$1 3 \, \$1 4 \, \$1 5 \, \$1 6,
f 18;
#X msg 110 58 8192;
#X obj 16 100 * 4096;
#X connect 0 0 2 0;
#X connect 2 0 4 0;
#X connect 3 0 10 0;
#X connect 4 0 3 0;
#X connect 5 0 8 0;
#X connect 6 0 10 1;
#X connect 7 0 6 0;
#X connect 8 0 1 0;
#X connect 9 0 6 0;
#X connect 10 0 5 0;
#X restore 661 328 pd pedal;
#N canvas 283 288 585 455.062 thru 0;
#X obj 32 21 ctlin;
#X obj 32 116 ctlout;
#X obj 32 141 pgmin;
#X obj 32 236 pgmout;
#X obj 32 73 pack f f f;
#X obj 32 193 pack f f;
#X obj 32 95 spigot;
#X obj 32 215 spigot;
#X obj 89 51 t f f;
#X obj 116 73 expr $f1<=6 && $f2;
#X obj 77 171 t f f;
#X obj 104 193 expr $f1<=6 && $f2;
#X obj 207 21 inlet;
#X connect 0 0 4 0;
#X connect 0 1 4 1;
#X connect 0 2 8 0;
#X connect 2 0 5 0;
#X connect 2 1 10 0;
#X connect 4 0 6 0;
#X connect 5 0 7 0;
#X connect 6 0 1 0;
#X connect 7 0 3 0;
#X connect 8 0 4 2;
#X connect 8 1 9 0;
#X connect 9 0 6 1;
#X connect 10 0 5 1;
#X connect 10 1 11 0;
#X connect 11 0 7 1;
#X connect 12 0 9 1;
#X connect 12 0 11 1;
#X restore 405 97 pd thru;
#X text 170 95 argument is delay time to detect double notes (150 msec
by default), f 34;
#X obj 206 71 ez-notefilters 150;
#X obj 206 133 ez-transpose;
#X floatatom 301 133 5 0 0 0 - ez-transpose -, f 5;
#X obj 405 18 bng 15 250 50 0 empty ez-off panic 17 7 0 10 -217154
-1 -1;
#X obj 301 154 t f b;
#X obj 328 177 s ez-off;
#N canvas 698 90 450 323 all-notes-off 0;
#X obj 36 26 inlet;
#X msg 36 73 0 123 1 \, 0 123 2 \, 0 123 3 \, 0 123 4 \, 0 123 5 \,
0 123 6;
#X obj 36 95 ctlout;
#X obj 36 48 t b b;
#X obj 93 95 s ez-all-notes-off;
#X connect 0 0 3 0;
#X connect 1 0 2 0;
#X connect 3 0 1 0;
#X connect 3 1 4 0;
#X restore 405 38 pd all-notes-off;
#X text 222 47 note filter, f 12;
#X obj 367 263 hradio 15 0 1 5 empty empty empty 0 -8 0 10 -262144
-1 -1 2;
#X text 445 262 pb range (0-4 quarter tones);
#X text 431 131 ext clock (recommended to keep this on by default)
;
#X text 366 214 guitar wing controls: prog changes and pitch bends
(cc3) -- the wing must be on MIDI in/out #3 to make this work, f 43
;
#X obj 367 284 gwing;
#X connect 8 0 1 0;
#X connect 8 1 7 0;
#X connect 8 2 2 0;
#X connect 8 3 9 0;
#X connect 8 4 3 0;
#X connect 8 5 10 0;
#X connect 8 6 4 0;
#X connect 8 7 11 0;
#X connect 8 8 5 0;
#X connect 8 9 12 0;
#X connect 8 10 6 0;
#X connect 8 11 13 0;
#X connect 14 0 17 0;
#X connect 14 1 15 0;
#X connect 14 2 36 0;
#X connect 15 0 18 0;
#X connect 16 0 15 1;
#X connect 17 0 35 0;
#X connect 18 0 35 1;
#X connect 19 0 35 2;
#X connect 20 0 16 0;
#X connect 22 0 24 0;
#X connect 23 0 40 0;
#X connect 24 0 23 0;
#X connect 25 0 24 1;
#X connect 27 0 43 1;
#X connect 29 0 41 0;
#X connect 31 0 30 0;
#X connect 32 0 31 0;
#X connect 35 0 38 0;
#X connect 36 0 19 0;
#X connect 36 1 37 0;
#X connect 37 0 38 1;
#X connect 38 0 39 0;
#X connect 39 0 8 0;
#X connect 39 1 43 0;
#X connect 43 0 44 0;
#X connect 44 0 26 0;
#X connect 45 0 47 0;
#X connect 46 0 49 0;
#X connect 47 0 44 1;
#X connect 47 1 48 0;
#X connect 51 0 55 0;
