#N canvas 298 255 1137 545.062 10;
#X text 93 187 ^;
#X obj 32 233 tgl 25 0 empty empty E 17 7 0 10 -261234 -1 -1 0 1;
#X obj 74 233 tgl 25 0 empty empty A 17 7 0 10 -262130 -1 -1 0 1;
#X obj 115 233 tgl 25 0 empty empty D 17 7 0 10 -204786 -1 -1 0 1;
#X obj 157 233 tgl 25 0 empty empty G 17 7 0 10 -204800 -1 -1 0 1;
#X obj 199 233 tgl 25 0 empty empty H 17 7 0 10 -203904 -1 -1 0 1;
#X obj 241 233 tgl 25 0 empty empty E 17 7 0 10 -232576 -1 -1 0 1;
#X symbolatom 32 267 4 0 0 0 - - -, f 4;
#X obj 32 187 ez-strings, f 35;
#X symbolatom 74 267 4 0 0 0 - - -, f 4;
#X symbolatom 115 267 4 0 0 0 - - -, f 4;
#X symbolatom 157 267 4 0 0 0 - - -, f 4;
#X symbolatom 199 267 4 0 0 0 - - -, f 4;
#X symbolatom 241 267 4 0 0 0 - - -, f 4;
#X obj 32 9 notein;
#X obj 48 75 expr ($f1>$f2)*$f1;
#X floatatom 153 52 5 0 0 0 - - -, f 5;
#X floatatom 32 99 5 0 0 0 - - -, f 5;
#X floatatom 73 99 5 0 0 0 - - -, f 5;
#X floatatom 115 99 5 0 0 0 - - -, f 5;
#X obj 153 22 tgl 15 1 empty empty empty 17 7 0 10 -262144 -1 -1 16
16;
#X text 431 73 pass through other MIDI;
#X obj 661 266 ctlin 64;
#X floatatom 661 308 5 0 0 0 - - -, f 5;
#X obj 661 288 spigot;
#X obj 725 266 tgl 15 1 empty empty empty 17 7 0 10 -262144 -1 -1 0
1;
#X obj 206 153 noteout;
#X obj 311 45 tgl 15 1 empty empty empty 17 7 0 10 -262144 -1 -1 1
1;
#X text 647 233 simulated bendin via sustain pedal (cc64), f 22;
#X obj 405 73 tgl 15 1 empty empty empty 17 7 0 10 -262144 -1 -1 1
1;
#X obj 405 181 midi-output;
#X msg 405 155 sysex 67 127 0 0 0 1 \$1;
#X obj 405 131 tgl 15 1 empty empty empty 17 7 0 10 -262144 -1 -1 127
127;
#X text 28 289 NOTE: use blind jack on phones out to disable direct
sound from the EZ-AG \; use local control on to enable hammer-ons
and pull-offs \, local control off makes it easier to play chords (capo+tuning
then select with +/-), f 49;
#N canvas 312 149 1019 639.062 gwing 0;
#X obj 32 120 pack f f;
#X msg 32 142 \$2 \$1;
#X obj 32 164 route 0;
#X msg 71 187 \$2;
#X obj 107 58 sel 40 41 46 47 48 49;
#X obj 292 114 + 1;
#X floatatom 129 162 5 0 0 0 prog - -, f 5;
#X msg 471 329 \$1 1 \, \$1 2 \, \$1 3 \, \$1 4 \, \$1 5 \, \$1 6;
#X obj 471 351 pgmout;
#X text 518 350 => GM synth;
#X text 28 18 Dial in program changes using the up/down and function
buttons of the Guitar Wing on Pd MIDI In #2;
#X obj 238 137 - 1;
#X obj 386 162 pack f f;
#X obj 386 204 route 3;
#X obj 169 162 tgl 15 0 empty empty pb 17 7 0 10 -262144 -1 -1 0 127
;
#X floatatom 471 163 5 0 0 0 - - -, f 5;
#X obj 386 226 sel 0;
#X msg 386 248 0;
#X floatatom 471 228 5 0 0 0 - - -, f 5;
#X obj 471 273 bendout;
#X msg 471 250 \$1 1 \, \$1 2 \, \$1 3 \, \$1 4 \, \$1 5 \, \$1 6;
#X obj 471 204 *;
#X obj 549 101 inlet;
#X obj 386 270 t f f;
#X obj 386 184 spigot;
#X obj 471 184 spigot;
#X obj 549 163 t f f f;
#X text 335 66 panic button (1st pad);
#X text 164 276 GM patches;
#X dropdown 101 183 10 0 0 0 - - -, f 10;
#X dropdown 184 183 0 0 0 0 - - -;
#X obj 213 324 list prepend names;
#X obj 213 346 list trim;
#X obj 29 325 list prepend names;
#X obj 29 347 list trim;
#X obj 98 277 loadbang;
#X floatatom 17 238 5 0 0 0 - - -, f 5;
#X obj 17 259 * 8;
#X obj 389 351 t f f;
#X obj 389 373 div 8;
#X floatatom 389 395 5 0 0 0 - - -, f 5;
#X msg 389 416 set \$1;
#X obj 389 330 - 1;
#X msg 437 416 set \$1;
#X msg 148 80 8;
#X msg 168 80 -8;
#X msg 189 80 0;
#X msg 209 80 127;
#X obj 29 303 symlist GM-families.txt;
#X obj 213 302 symlist GM-patches.txt;
#X obj 369 43 s ez-off;
#X obj 369 21 sel 36 37 38;
#X obj 498 70 +;
#X obj 621 70 f;
#X msg 518 38 -12;
#X msg 498 38 12;
#X obj 561 35 s ez-transpose;
#X text 455 12 transpose +/-1 octave (2nd and 3rd pad);
#X obj 206 162 bng 15 250 50 0 empty empty +1\ oct 17 7 0 10 -262144
-1 -1;
#X obj 267 162 bng 15 250 50 0 empty empty -1\ oct 17 7 0 10 -262144
-1 -1;
#X obj 107 106 +;
#X obj 228 106 f;
#X obj 134 106 max 0;
#X obj 173 106 min 127;
#X msg 107 80 1;
#X msg 127 80 -1;
#X obj 116 350 nbx 5 14 0 127 0 1 empty empty empty 0 -8 0 10 -262144
-1 -1 24 256 0;
#X obj 129 212 t f f f;
#X obj 116 369 t f b;
#X obj 116 391 spigot;
#X obj 159 369 tgl 15 1 empty empty empty 17 7 0 10 -262144 -1 -1 0
1;
#X obj 525 70 max -24;
#X obj 576 70 min 48;
#X obj 549 123 * 16;
#X obj 116 413 spigot;
#X obj 166 391 r gw-map;
#X obj 267 144 tgl 15 1 empty empty thru 17 7 0 10 -262144 -1 -1 0
1;
#X obj 267 229 == 0;
#X obj 267 251 s gw-map;
#X obj 386 142 spigot;
#X obj 404 120 r gw-map;
#X obj 32 99 spigot;
#X obj 37 77 r gw-map;
#X obj 471 142 spigot;
#X obj 489 120 r gw-map;
#X obj 267 208 t f f;
#X obj 305 229 s gw-thru;
#N canvas 401 274 592 439.062 gw-thru 0;
#X obj 14 166 pack f f;
#X obj 14 145 spigot;
#X obj 46 123 r gw-thru;
#X obj 14 188 route 1 2 3;
#X obj 169 145 spigot;
#X obj 201 123 r gw-thru;
#X obj 169 237 spigot;
#X obj 201 215 r gw-thru;
#X obj 269 237 spigot;
#X obj 301 215 r gw-thru;
#X text 12 15 This simply disables all local processing and instead
passes through all MIDI output from the Wing on MIDI output #3 \, so
that it can be used inside a DAW. NOTE: We also filter out the note
messages associated with the faders of the Wing \, so that these don't
get in the way of MIDi learn inside the DAW.;
#X obj 14 104 notein 33;
#X obj 169 104 ctlin 3 33;
#X obj 77 217 noteout 17;
#X obj 169 167 ctlout 3 17;
#X obj 169 196 ctlin 1 33;
#X obj 269 196 ctlin 2 33;
#X obj 169 259 ctlout 1 17;
#X obj 269 259 ctlout 2 17;
#X connect 0 0 3 0;
#X connect 1 0 0 0;
#X connect 2 0 1 1;
#X connect 3 3 13 0;
#X connect 4 0 14 0;
#X connect 5 0 4 1;
#X connect 6 0 17 0;
#X connect 7 0 6 1;
#X connect 8 0 18 0;
#X connect 9 0 8 1;
#X connect 11 0 1 0;
#X connect 11 1 0 1;
#X connect 12 0 4 0;
#X connect 15 0 6 0;
#X connect 16 0 8 0;
#X restore 244 391 pd gw-thru;
#X obj 32 58 notein 33;
#X obj 386 100 notein 33;
#X obj 471 101 ctlin 3 33;
#X obj 386 292 ctlout 3 33;
#X connect 0 0 1 0;
#X connect 1 0 2 0;
#X connect 2 1 3 0;
#X connect 3 0 4 0;
#X connect 4 0 64 0;
#X connect 4 1 65 0;
#X connect 4 2 44 0;
#X connect 4 3 45 0;
#X connect 4 4 46 0;
#X connect 4 5 47 0;
#X connect 4 6 51 0;
#X connect 5 0 6 0;
#X connect 6 0 67 0;
#X connect 7 0 8 0;
#X connect 11 0 61 1;
#X connect 12 0 24 0;
#X connect 13 0 14 0;
#X connect 14 0 16 0;
#X connect 15 0 25 0;
#X connect 16 0 17 0;
#X connect 17 0 23 0;
#X connect 18 0 20 0;
#X connect 20 0 19 0;
#X connect 21 0 18 0;
#X connect 22 0 73 0;
#X connect 23 0 91 0;
#X connect 23 1 15 0;
#X connect 24 0 13 0;
#X connect 25 0 21 0;
#X connect 26 0 21 1;
#X connect 26 1 24 1;
#X connect 26 2 25 1;
#X connect 29 0 36 0;
#X connect 30 0 61 0;
#X connect 31 0 32 0;
#X connect 32 0 30 0;
#X connect 33 0 34 0;
#X connect 34 0 29 0;
#X connect 35 0 48 0;
#X connect 35 0 49 0;
#X connect 35 0 66 0;
#X connect 36 0 37 0;
#X connect 37 0 30 0;
#X connect 38 0 39 0;
#X connect 38 1 43 0;
#X connect 39 0 40 0;
#X connect 40 0 41 0;
#X connect 41 0 29 0;
#X connect 42 0 38 0;
#X connect 43 0 30 0;
#X connect 44 0 60 0;
#X connect 45 0 60 0;
#X connect 46 0 61 0;
#X connect 47 0 61 0;
#X connect 48 0 33 0;
#X connect 49 0 31 0;
#X connect 51 0 50 0;
#X connect 51 1 58 0;
#X connect 51 2 59 0;
#X connect 52 0 71 0;
#X connect 53 0 52 1;
#X connect 53 0 56 0;
#X connect 54 0 52 0;
#X connect 55 0 52 0;
#X connect 58 0 55 0;
#X connect 59 0 54 0;
#X connect 60 0 62 0;
#X connect 61 0 5 0;
#X connect 61 0 60 1;
#X connect 61 0 66 0;
#X connect 62 0 63 0;
#X connect 63 0 61 0;
#X connect 64 0 60 0;
#X connect 65 0 60 0;
#X connect 66 0 68 0;
#X connect 67 0 42 0;
#X connect 67 1 11 0;
#X connect 67 2 7 0;
#X connect 68 0 69 0;
#X connect 68 1 70 0;
#X connect 69 0 74 0;
#X connect 70 0 69 1;
#X connect 71 0 72 0;
#X connect 72 0 53 0;
#X connect 73 0 26 0;
#X connect 74 0 61 0;
#X connect 75 0 74 1;
#X connect 76 0 85 0;
#X connect 77 0 78 0;
#X connect 79 0 12 0;
#X connect 80 0 79 1;
#X connect 81 0 0 0;
#X connect 82 0 81 1;
#X connect 83 0 15 0;
#X connect 84 0 83 1;
#X connect 85 0 77 0;
#X connect 85 1 86 0;
#X connect 88 0 81 0;
#X connect 88 1 0 1;
#X connect 89 0 79 0;
#X connect 89 1 12 1;
#X connect 90 0 83 0;
#X coords 0 -1 1 1 231 62 1 98 142;
#X restore 367 284 pd gwing;
#X text 175 22 velocity threshold;
#X obj 32 120 pack f f f;
#X obj 66 31 t f f;
#X obj 93 53 <= 6;
#X obj 32 142 spigot;
#X obj 32 164 t a a;
#N canvas 555 198 450 300.062 pedal 0;
#X obj 16 12 inlet;
#X obj 16 177 bendout;
#X msg 16 36 \$1 200;
#X obj 16 78 / 127;
#X obj 16 58 line;
#X floatatom 16 122 5 0 0 0 - - -, f 5;
#X floatatom 72 78 5 0 0 0 - - -, f 5;
#X msg 72 58 4096;
#X msg 16 142 \$1 1 \, \$1 2 \, \$1 3 \, \$1 4 \, \$1 5 \, \$1 6,
f 18;
#X msg 110 58 8192;
#X obj 16 100 * 4096;
#X connect 0 0 2 0;
#X connect 2 0 4 0;
#X connect 3 0 10 0;
#X connect 4 0 3 0;
#X connect 5 0 8 0;
#X connect 6 0 10 1;
#X connect 7 0 6 0;
#X connect 8 0 1 0;
#X connect 9 0 6 0;
#X connect 10 0 5 0;
#X restore 661 328 pd pedal;
#N canvas 283 288 585 455.062 thru 0;
#X obj 32 21 ctlin;
#X obj 32 116 ctlout;
#X obj 32 141 pgmin;
#X obj 32 236 pgmout;
#X obj 32 73 pack f f f;
#X obj 32 193 pack f f;
#X obj 32 95 spigot;
#X obj 32 215 spigot;
#X obj 89 51 t f f;
#X obj 116 73 expr $f1<=6 && $f2;
#X obj 77 171 t f f;
#X obj 104 193 expr $f1<=6 && $f2;
#X obj 207 21 inlet;
#X connect 0 0 4 0;
#X connect 0 1 4 1;
#X connect 0 2 8 0;
#X connect 2 0 5 0;
#X connect 2 1 10 0;
#X connect 4 0 6 0;
#X connect 5 0 7 0;
#X connect 6 0 1 0;
#X connect 7 0 3 0;
#X connect 8 0 4 2;
#X connect 8 1 9 0;
#X connect 9 0 6 1;
#X connect 10 0 5 1;
#X connect 10 1 11 0;
#X connect 11 0 7 1;
#X connect 12 0 9 1;
#X connect 12 0 11 1;
#X restore 405 97 pd thru;
#X text 170 95 argument is delay time to detect double notes (150 msec
by default), f 34;
#X obj 206 71 ez-notefilters 150;
#X obj 206 133 ez-transpose;
#X floatatom 301 133 5 0 0 0 - ez-transpose -, f 5;
#X obj 405 18 bng 15 250 50 0 empty ez-off panic 17 7 0 10 -217154
-1 -1;
#X obj 301 154 t f b;
#X obj 328 177 s ez-off;
#N canvas 698 90 450 323 all-notes-off 0;
#X obj 36 26 inlet;
#X msg 36 53 0 123 1 \, 0 123 2 \, 0 123 3 \, 0 123 4 \, 0 123 5 \,
0 123 6;
#X obj 36 75 ctlout;
#X connect 0 0 1 0;
#X connect 1 0 2 0;
#X restore 405 38 pd all-notes-off;
#X text 222 47 note filter, f 12;
#X obj 367 263 hradio 15 0 1 5 empty empty empty 0 -8 0 10 -262144
-1 -1 2;
#X text 445 262 pb range (0-4 quarter tones);
#X text 431 131 ext clock (recommended to keep this on by default)
;
#X text 366 214 guitar wing controls: prog changes and pitch bends
(cc3) -- the wing must be on MIDI in/out #3 to make this work, f 43
;
#X connect 8 0 1 0;
#X connect 8 1 7 0;
#X connect 8 2 2 0;
#X connect 8 3 9 0;
#X connect 8 4 3 0;
#X connect 8 5 10 0;
#X connect 8 6 4 0;
#X connect 8 7 11 0;
#X connect 8 8 5 0;
#X connect 8 9 12 0;
#X connect 8 10 6 0;
#X connect 8 11 13 0;
#X connect 14 0 17 0;
#X connect 14 1 15 0;
#X connect 14 2 37 0;
#X connect 15 0 18 0;
#X connect 16 0 15 1;
#X connect 17 0 36 0;
#X connect 18 0 36 1;
#X connect 19 0 36 2;
#X connect 20 0 16 0;
#X connect 22 0 24 0;
#X connect 23 0 41 0;
#X connect 24 0 23 0;
#X connect 25 0 24 1;
#X connect 27 0 44 1;
#X connect 29 0 42 0;
#X connect 31 0 30 0;
#X connect 32 0 31 0;
#X connect 36 0 39 0;
#X connect 37 0 19 0;
#X connect 37 1 38 0;
#X connect 38 0 39 1;
#X connect 39 0 40 0;
#X connect 40 0 8 0;
#X connect 40 1 44 0;
#X connect 44 0 45 0;
#X connect 45 0 26 0;
#X connect 46 0 48 0;
#X connect 47 0 50 0;
#X connect 48 0 45 1;
#X connect 48 1 49 0;
#X connect 52 0 34 0;
