#N struct fretboard-struct float x float y array a string-element;
#N struct string-element float x float y float p float q float r float
s;
#N canvas 936 197 404 211.062 10;
#N canvas 602 126 735 666.062 ez-notein 0;
#X obj 29 30 r ez-noteout;
#X obj 29 52 unpack f f f;
#X obj 29 74 pack f f;
#X msg 29 96 \$2 \$1;
#X obj 29 118 route 0;
#X msg 29 140 -1;
#X obj 29 162 pack f f;
#X msg 29 184 \$2 \$1;
#X msg 291 210 0 40 45 50 55 59 64;
#X obj 101 138 unpack f f;
#X obj 158 164 -;
#X floatatom 158 186 5 0 0 0 - - -, f 5;
#X obj 98 74 t f f;
#X obj 173 115 expr 6-$f1;
#X obj 291 187 loadbang;
#X msg 30 238 \$2 \$3 \$1;
#X obj 30 260 route 0;
#X obj 69 300 route 6 5 4 3 2 1;
#X floatatom 69 322 5 0 0 0 - - -, f 5;
#X floatatom 106 322 5 0 0 0 - - -, f 5;
#X floatatom 143 322 5 0 0 0 - - -, f 5;
#X floatatom 180 322 5 0 0 0 - - -, f 5;
#X floatatom 217 322 5 0 0 0 - - -, f 5;
#X floatatom 254 322 5 0 0 0 - - -, f 5;
#X obj 54 345 f;
#X obj 91 345 f;
#X obj 128 345 f;
#X obj 165 345 f;
#X obj 202 345 f;
#X obj 239 345 f;
#X obj 303 322 bng 15 250 50 0 empty empty tune 17 7 0 10 -262144 -1
-1;
#X obj 208 277 t b b b b b b;
#X obj 95 376 pack f f f f f f;
#X obj 95 398 list prepend 0;
#X msg 69 280 \$2 \$3;
#X obj 95 420 s basenotes;
#X obj 291 232 s basenotes;
#X obj 173 138 tabread basenotes;
#X obj 158 207 moses 0;
#X obj 29 206 outlet;
#X obj 294 41 table basenotes 6;
#X msg 158 229 -2;
#X connect 0 0 1 0;
#X connect 0 0 15 0;
#X connect 1 0 2 0;
#X connect 1 1 2 1;
#X connect 1 2 12 0;
#X connect 2 0 3 0;
#X connect 3 0 4 0;
#X connect 4 0 5 0;
#X connect 4 1 9 0;
#X connect 5 0 6 0;
#X connect 6 0 7 0;
#X connect 7 0 39 0;
#X connect 8 0 36 0;
#X connect 9 1 10 0;
#X connect 10 0 11 0;
#X connect 11 0 38 0;
#X connect 12 0 6 1;
#X connect 12 1 13 0;
#X connect 13 0 37 0;
#X connect 14 0 8 0;
#X connect 15 0 16 0;
#X connect 16 1 34 0;
#X connect 17 0 18 0;
#X connect 17 1 19 0;
#X connect 17 2 20 0;
#X connect 17 3 21 0;
#X connect 17 4 22 0;
#X connect 17 5 23 0;
#X connect 18 0 24 1;
#X connect 19 0 25 1;
#X connect 20 0 26 1;
#X connect 21 0 27 1;
#X connect 22 0 28 1;
#X connect 23 0 29 1;
#X connect 24 0 32 0;
#X connect 25 0 32 1;
#X connect 26 0 32 2;
#X connect 27 0 32 3;
#X connect 28 0 32 4;
#X connect 29 0 32 5;
#X connect 30 0 31 0;
#X connect 31 0 24 0;
#X connect 31 1 25 0;
#X connect 31 2 26 0;
#X connect 31 3 27 0;
#X connect 31 4 28 0;
#X connect 31 5 29 0;
#X connect 32 0 33 0;
#X connect 33 0 35 0;
#X connect 34 0 17 0;
#X connect 37 0 10 1;
#X connect 38 0 41 0;
#X connect 38 1 6 0;
#X connect 41 0 6 0;
#X coords 0 -1 1 1 83 40 1 296 303;
#X restore 15 36 pd ez-notein;
#X obj 15 83 fretboard;
#X connect 0 0 1 0;
