#N canvas 176 29 808 814.062 10;
#X obj 37 92 poly 1 1;
#X obj 37 114 pack f f f;
#X obj 37 136 route 1;
#X msg 37 158 \$2 \$1;
#X obj 37 180 route 0;
#X obj 37 386 f;
#X obj 37 342 t b f f;
#X obj 174 225 t f f;
#X obj 176 281 expr $f1==$f2;
#X obj 176 303 tgl 15 0 empty empty empty 17 7 0 10 -262144 -1 -1 0
1;
#X obj 176 323 pack f f;
#X obj 176 345 route 1 0;
#X msg 141 366 stop;
#X obj 215 395 pack f f;
#X msg 174 183 \$2 \$1;
#X obj 174 205 unpack f f;
#X obj 176 367 t b b;
#X obj 120 245 bng 15 250 50 0 empty empty empty 17 7 0 10 -262144
-1 -1;
#X msg 120 265 0;
#X obj 120 287 t f f;
#X obj 37 452 route 0;
#X msg 76 476 \$1 0;
#X floatatom 251 260 5 0 0 0 - - -, f 5;
#X floatatom 176 260 5 0 0 0 - - -, f 5;
#X obj 16 255 expr $f1==$f2;
#X obj 16 277 tgl 15 0 empty empty empty 17 7 0 10 -262144 -1 -1 0
1;
#X obj 16 297 pack f f;
#X obj 16 319 route 1 0;
#X floatatom 91 212 5 0 0 0 - - -, f 5;
#X floatatom 16 212 5 0 0 0 - - -, f 5;
#X obj 16 233 t f f;
#X obj 37 430 t f b;
#X obj 215 367 t f b b f;
#X obj 277 434 f;
#X obj 278 388 t b f;
#X obj 277 412 del 150;
#X obj 37 364 delay 150;
#X obj 164 472 list append \$1;
#X obj 164 494 outlet;
#X obj 386 346 r ez-delay;
#X obj 331 261 loadbang;
#X obj 331 283 f \$2;
#X obj 331 305 sel 0;
#X floatatom 331 349 5 0 0 0 - - ez-delay, f 5;
#X text 328 194 time threshold to detect double notes (150 msec by
default) \, can be given as 2nd creation argument or sent to ez-delay
, f 32;
#X msg 331 327 150;
#X obj 148 33 inlet;
#X obj 148 55 list prepend 0;
#X obj 148 77 route 1 0;
#X obj 229 33 r ez-filter;
#X text 249 57 if ez-filter is disabled \, note input is simply passed
through, f 36;
#X obj 148 100 t a a;
#X obj 372 455 spigot;
#X obj 372 477 print in-\$1;
#X obj 405 432 tgl 15 0 empty empty empty 17 7 0 10 -262144 -1 -1 0
1;
#X text 113 128 otherwise we go to some lengths to reduce the amount
of spurious double notes easily produced by the EZ-AG unless you have
a *very* clean playing style;
#X connect 0 0 1 0;
#X connect 0 1 1 1;
#X connect 0 2 1 2;
#X connect 1 0 2 0;
#X connect 2 0 3 0;
#X connect 3 0 4 0;
#X connect 4 0 29 0;
#X connect 4 1 14 0;
#X connect 5 0 31 0;
#X connect 6 0 36 0;
#X connect 6 1 5 1;
#X connect 6 2 22 0;
#X connect 7 0 23 0;
#X connect 7 1 10 1;
#X connect 8 0 9 0;
#X connect 9 0 10 0;
#X connect 10 0 11 0;
#X connect 11 0 16 0;
#X connect 11 1 32 0;
#X connect 12 0 36 0;
#X connect 13 0 37 0;
#X connect 14 0 15 0;
#X connect 15 0 7 0;
#X connect 15 1 13 1;
#X connect 16 0 17 0;
#X connect 16 1 12 0;
#X connect 17 0 18 0;
#X connect 18 0 19 0;
#X connect 19 0 5 1;
#X connect 19 1 22 0;
#X connect 20 1 21 0;
#X connect 21 0 37 0;
#X connect 22 0 8 1;
#X connect 23 0 8 0;
#X connect 24 0 25 0;
#X connect 25 0 26 0;
#X connect 26 0 27 0;
#X connect 27 0 5 0;
#X connect 27 1 6 0;
#X connect 28 0 24 1;
#X connect 29 0 30 0;
#X connect 30 0 24 0;
#X connect 30 1 26 1;
#X connect 31 0 20 0;
#X connect 31 1 17 0;
#X connect 32 0 13 0;
#X connect 32 1 5 0;
#X connect 32 2 12 0;
#X connect 32 3 34 0;
#X connect 33 0 28 0;
#X connect 34 0 35 0;
#X connect 34 1 33 1;
#X connect 35 0 33 0;
#X connect 36 0 5 0;
#X connect 37 0 38 0;
#X connect 39 0 35 1;
#X connect 39 0 36 1;
#X connect 40 0 41 0;
#X connect 41 0 42 0;
#X connect 42 0 45 0;
#X connect 42 1 43 0;
#X connect 45 0 43 0;
#X connect 46 0 47 0;
#X connect 47 0 48 0;
#X connect 48 0 51 0;
#X connect 48 1 37 0;
#X connect 49 0 47 1;
#X connect 51 0 0 0;
#X connect 51 1 52 0;
#X connect 52 0 53 0;
#X connect 54 0 52 1;
