#N canvas 632 329 717 388.062 10;
#X obj 11 20 inlet;
#X msg 11 64 \$3 \$1 \$2;
#X obj 11 86 route 1 2 3 4 5 6;
#X obj 11 113 ez-notefilter 1;
#X obj 28 138 ez-notefilter 2;
#X obj 45 165 ez-notefilter 3;
#X obj 124 113 ez-notefilter 4;
#X obj 155 138 ez-notefilter 5;
#X obj 185 165 ez-notefilter 6;
#X obj 148 48 tgl 15 0 ez-filter empty empty 17 7 0 10 -262144 -1 -1
1 1;
#X obj 148 20 inlet;
#X obj 288 122 loadbang;
#X obj 288 144 f \$2;
#X obj 288 166 sel 0;
#X floatatom 288 210 5 0 0 0 - - ez-delay, f 5;
#X text 285 55 time threshold to detect double notes (150 msec by default)
\, can be given as creation argument or sent to ez-delay, f 32;
#X msg 288 188 150;
#X obj 11 215 t a a;
#X obj 11 237 outlet;
#X obj 60 237 s ez-noteout;
#X connect 0 0 1 0;
#X connect 1 0 2 0;
#X connect 2 0 3 0;
#X connect 2 1 4 0;
#X connect 2 2 5 0;
#X connect 2 3 6 0;
#X connect 2 4 7 0;
#X connect 2 5 8 0;
#X connect 3 0 17 0;
#X connect 4 0 17 0;
#X connect 5 0 17 0;
#X connect 6 0 17 0;
#X connect 7 0 17 0;
#X connect 8 0 17 0;
#X connect 10 0 9 0;
#X connect 11 0 12 0;
#X connect 12 0 13 0;
#X connect 13 0 16 0;
#X connect 13 1 14 0;
#X connect 16 0 14 0;
#X connect 17 0 18 0;
#X connect 17 1 19 0;
