#N canvas 393 131 641 548.062 10;
#X obj 22 61 poly 2;
#X obj 22 83 pack f f f;
#X obj 22 105 route 1 2;
#X obj 22 127 unpack f f;
#X floatatom 22 149 5 0 0 0 - - -, f 5;
#X floatatom 79 148 5 0 0 0 - - -, f 5;
#X obj 122 127 unpack f f;
#X floatatom 122 149 5 0 0 0 - - -, f 5;
#X floatatom 179 148 5 0 0 0 - - -, f 5;
#X obj 79 169 t f f;
#X obj 179 169 t f f;
#X obj 79 191 > 0;
#X obj 179 191 > 0;
#X obj 22 240 pack f f;
#X obj 122 240 pack f f;
#X obj 22 262 spigot;
#X obj 122 262 spigot;
#X obj 79 213 t f f;
#X obj 179 213 t f b f;
#X obj 174 319 tgl 15 0 empty empty empty 17 7 0 10 -262144 -1 -1 0
1;
#X obj 66 285 unpack f f;
#X floatatom 66 307 5 0 0 0 - - -, f 5;
#X floatatom 123 306 5 0 0 0 - - -, f 5;
#X obj 174 297 ||;
#X obj 22 18 inlet;
#X obj 241 39 sel 0 1 2 3 4 5 6 7 8 9 10 11;
#X msg 241 61 C;
#X msg 251 71 C#;
#X msg 261 81 D;
#X msg 281 101 E;
#X msg 291 111 F;
#X msg 301 121 F#;
#X msg 311 131 G;
#X msg 321 141 G#;
#X msg 331 151 A;
#X msg 341 161 B;
#X msg 351 171 H;
#X msg 271 91 Eb;
#X obj 241 194 symbol;
#X obj 174 339 outlet;
#X obj 22 40 unpack f f;
#X obj 109 18 r ez-all-notes-off;
#X msg 109 40 stop;
#X obj 113 350 div 12;
#X obj 66 328 t f f;
#X obj 241 216 sprintf %s%d;
#X obj 241 281 outlet;
#X obj 66 350 mod 12;
#X obj 241 238 symbol;
#X symbolatom 241 260 10 0 0 0 - - -, f 10;
#X connect 0 0 1 0;
#X connect 0 1 1 1;
#X connect 0 2 1 2;
#X connect 1 0 2 0;
#X connect 2 0 3 0;
#X connect 2 1 6 0;
#X connect 3 0 4 0;
#X connect 3 1 5 0;
#X connect 4 0 13 0;
#X connect 5 0 9 0;
#X connect 6 0 7 0;
#X connect 6 1 8 0;
#X connect 7 0 14 0;
#X connect 8 0 10 0;
#X connect 9 0 11 0;
#X connect 9 1 13 1;
#X connect 10 0 12 0;
#X connect 10 1 14 1;
#X connect 11 0 17 0;
#X connect 12 0 18 0;
#X connect 13 0 15 0;
#X connect 14 0 16 0;
#X connect 15 0 20 0;
#X connect 16 0 20 0;
#X connect 17 0 15 1;
#X connect 17 1 23 0;
#X connect 18 0 16 1;
#X connect 18 1 23 0;
#X connect 18 2 23 1;
#X connect 19 0 39 0;
#X connect 20 0 21 0;
#X connect 20 1 22 0;
#X connect 21 0 44 0;
#X connect 23 0 19 0;
#X connect 24 0 40 0;
#X connect 25 0 26 0;
#X connect 25 1 27 0;
#X connect 25 2 28 0;
#X connect 25 3 37 0;
#X connect 25 4 29 0;
#X connect 25 5 30 0;
#X connect 25 6 31 0;
#X connect 25 7 32 0;
#X connect 25 8 33 0;
#X connect 25 9 34 0;
#X connect 25 10 35 0;
#X connect 25 11 36 0;
#X connect 26 0 38 0;
#X connect 27 0 38 0;
#X connect 28 0 38 0;
#X connect 29 0 38 0;
#X connect 30 0 38 0;
#X connect 31 0 38 0;
#X connect 32 0 38 0;
#X connect 33 0 38 0;
#X connect 34 0 38 0;
#X connect 35 0 38 0;
#X connect 36 0 38 0;
#X connect 37 0 38 0;
#X connect 38 0 45 0;
#X connect 40 0 0 0;
#X connect 40 1 0 1;
#X connect 41 0 42 0;
#X connect 42 0 0 0;
#X connect 43 0 45 1;
#X connect 44 0 47 0;
#X connect 44 1 43 0;
#X connect 45 0 48 0;
#X connect 47 0 25 0;
#X connect 48 0 49 0;
#X connect 49 0 46 0;
