#N canvas 658 241 622 373.062 10;
#X obj 11 20 inlet;
#X msg 11 64 \$3 \$1 \$2;
#X obj 11 86 route 6 5 4 3 2 1;
#X obj 11 136 ez-string;
#X obj 74 136 ez-string;
#X obj 137 136 ez-string;
#X obj 200 136 ez-string;
#X obj 263 136 ez-string;
#X obj 326 136 ez-string;
#X obj 11 158 outlet;
#X obj 62 178 outlet;
#X obj 74 158 outlet;
#X obj 125 178 outlet;
#X obj 137 158 outlet;
#X obj 188 178 outlet;
#X obj 200 158 outlet;
#X obj 251 178 outlet;
#X obj 263 158 outlet;
#X obj 314 178 outlet;
#X obj 326 158 outlet;
#X obj 377 178 outlet;
#X obj 186 51 loadbang;
#X msg 186 73 symbol;
#X connect 0 0 1 0;
#X connect 1 0 2 0;
#X connect 2 0 3 0;
#X connect 2 1 4 0;
#X connect 2 2 5 0;
#X connect 2 3 6 0;
#X connect 2 4 7 0;
#X connect 2 5 8 0;
#X connect 3 0 9 0;
#X connect 3 1 10 0;
#X connect 4 0 11 0;
#X connect 4 1 12 0;
#X connect 5 0 13 0;
#X connect 5 1 14 0;
#X connect 6 0 15 0;
#X connect 6 1 16 0;
#X connect 7 0 17 0;
#X connect 7 1 18 0;
#X connect 8 0 19 0;
#X connect 8 1 20 0;
#X connect 21 0 22 0;
#X connect 22 0 10 0;
#X connect 22 0 20 0;
#X connect 22 0 18 0;
#X connect 22 0 16 0;
#X connect 22 0 14 0;
#X connect 22 0 12 0;
