#N struct fretboard-struct float x float y array a string-element;
#N struct string-element float x float y float p float q float r float
s;
#N canvas 366 352 910 119.062 10;
#X scalar fretboard-struct 15 21 \; 0 0 0 1 0 0 \; 0 10 0 1 0 0 \;
0 20 0 1 0 0 \; 0 30 0 1 0 0 \; 0 40 0 1 0 0 \; 0 50 0 1 0 0 \; \;
;
#N canvas 406 29 1023 748.062 fretboard-struct 0;
#X msg 18 96 stroke black \, stroke-width 1;
#X obj 241 96 draw path M 0 0 v 50, f 35;
#X msg 241 75 stroke black \, stroke-width 2;
#X obj 18 118 draw path M 0 0 h 600 M 0 10 h 600 M 0 20 h 600 M 0 30
h 600 M 0 40 h 600 M 0 50 h 600 M 50 0 v 50 M 100 0 v 50 M 150 0 v
50 M 200 0 v 50 M 250 0 v 50 M 300 0 v 50 M 350 0 v 50 M 400 0 v 50
M 450 0 v 50 M 500 0 v 50 M 550 0 v 50 M 600 0 v 50, f 72;
#X obj 241 53 loadbang;
#X msg 472 50 fill grey;
#X obj 472 73 draw circle 4 125 25;
#X obj 472 94 draw circle 4 225 25;
#X obj 472 157 draw circle 4 569 25;
#X obj 472 178 draw circle 4 581 25;
#X obj 472 115 draw circle 4 325 25;
#X obj 472 136 draw circle 4 425 25;
#N canvas 563 392 594 323.062 string-element 0;
#X obj 17 96 draw circle 3 x y;
#X obj 17 138 draw circle 3 -5 y;
#X msg 17 117 stroke black \, fill white \, stroke-opacity p \, fill-opacity
p;
#X msg 17 159 stroke black \, stroke-opacity q \, fill-opacity q;
#X obj 17 53 loadbang;
#X obj 17 180 draw path M -8 y m 0 -3 l 6 6 M -8 y m 0 3 l 6 -6;
#X msg 17 75 stroke black \, stroke-opacity r \, fill-opacity r;
#X obj 17 27 struct string-element float x float y float p float q
float r, f 61;
#X connect 2 0 1 0;
#X connect 3 0 5 0;
#X connect 4 0 6 0;
#X connect 4 0 2 0;
#X connect 4 0 3 0;
#X connect 6 0 0 0;
#X restore 386 23 pd string-element;
#X obj 18 23 struct fretboard-struct float x float y array a string-element
;
#X obj 164 200 draw array a;
#X msg 19 184 6;
#X obj 19 206 t f f b;
#X obj 191 296 pointer;
#X obj 38 323 setsize fretboard-struct a;
#X obj 19 228 t f 0;
#X obj 19 250 until;
#X obj 19 272 f;
#X obj 50 272 + 1;
#X obj 19 294 t f f;
#X obj 136 346 element fretboard-struct a;
#X obj 19 410 set string-element y;
#X obj 164 243 inlet;
#X obj 19 388 * 10;
#X obj 19 366 t f f;
#X obj 136 368 t p p;
#X obj 163 410 pack f p;
#X obj 324 249 route 0 1 2 3 4 5;
#X obj 267 293 pointer;
#X obj 318 293 pointer;
#X obj 369 293 pointer;
#X obj 420 293 pointer;
#X obj 471 293 pointer;
#X obj 522 293 pointer;
#X obj 555 579 set string-element x;
#X obj 555 487 * 50;
#X obj 516 430 moses 1;
#X obj 555 509 - 25;
#X obj 555 465 moses 13;
#X obj 599 487 bng 15 250 50 0 empty empty empty 17 7 0 10 -262144
-1 -1;
#X obj 477 400 moses 0;
#X obj 299 579 set string-element p;
#X obj 266 477 t p;
#X obj 427 579 set string-element q;
#X obj 683 579 set string-element r;
#X obj 591 283 inlet;
#X msg 591 305 \$2 \$1;
#X obj 591 327 unpack f f;
#X obj 495 237 sel 1 2 3 4 5 6;
#X floatatom 591 349 5 0 0 0 - - -, f 5;
#X obj 164 265 t b a;
#X obj 113 296 del 100;
#X obj 448 430 moses -1;
#X obj 421 527 unpack f f f f;
#X msg 406 477 0 1 0 0;
#X msg 478 477 1 0 0 0;
#X msg 555 543 0 0 1 \$1;
#X msg 322 477 0 0 0.4 0;
#X msg 599 507 0 0 0.4 600;
#X connect 0 0 3 0;
#X connect 2 0 1 0;
#X connect 4 0 0 0;
#X connect 4 0 2 0;
#X connect 4 0 5 0;
#X connect 5 0 6 0;
#X connect 5 0 7 0;
#X connect 5 0 8 0;
#X connect 5 0 9 0;
#X connect 5 0 10 0;
#X connect 5 0 11 0;
#X connect 15 0 16 0;
#X connect 16 0 19 0;
#X connect 16 1 18 0;
#X connect 17 0 18 1;
#X connect 17 0 24 1;
#X connect 19 0 20 0;
#X connect 19 1 21 1;
#X connect 20 0 21 0;
#X connect 21 0 22 0;
#X connect 21 0 23 0;
#X connect 22 0 21 1;
#X connect 23 0 28 0;
#X connect 23 1 24 0;
#X connect 24 0 29 0;
#X connect 26 0 54 0;
#X connect 27 0 25 0;
#X connect 28 0 27 0;
#X connect 28 1 30 0;
#X connect 29 0 25 1;
#X connect 29 1 30 1;
#X connect 30 0 31 0;
#X connect 31 0 32 1;
#X connect 31 1 33 1;
#X connect 31 2 34 1;
#X connect 31 3 35 1;
#X connect 31 4 36 1;
#X connect 31 5 37 1;
#X connect 32 0 46 0;
#X connect 33 0 46 0;
#X connect 34 0 46 0;
#X connect 35 0 46 0;
#X connect 36 0 46 0;
#X connect 37 0 46 0;
#X connect 39 0 41 0;
#X connect 40 0 59 0;
#X connect 40 1 42 0;
#X connect 41 0 60 0;
#X connect 42 0 39 0;
#X connect 42 1 43 0;
#X connect 43 0 62 0;
#X connect 44 0 56 0;
#X connect 44 1 40 0;
#X connect 46 0 45 1;
#X connect 46 0 48 1;
#X connect 46 0 47 1;
#X connect 46 0 38 1;
#X connect 49 0 50 0;
#X connect 50 0 51 0;
#X connect 51 0 53 0;
#X connect 51 1 52 0;
#X connect 52 0 32 0;
#X connect 52 1 33 0;
#X connect 52 2 34 0;
#X connect 52 3 35 0;
#X connect 52 4 36 0;
#X connect 52 5 37 0;
#X connect 53 0 44 0;
#X connect 54 0 55 0;
#X connect 54 1 17 0;
#X connect 55 0 15 0;
#X connect 56 0 61 0;
#X connect 56 1 58 0;
#X connect 57 0 45 0;
#X connect 57 1 47 0;
#X connect 57 2 48 0;
#X connect 57 3 38 0;
#X connect 58 0 57 0;
#X connect 59 0 57 0;
#X connect 60 0 57 0;
#X connect 61 0 57 0;
#X connect 62 0 57 0;
#X restore 15 204 pd fretboard-struct;
#X obj 15 160 canvasinfo;
#X msg 15 137 pointer;
#X msg 15 182 list \$1 \, next;
#X obj 15 115 loadbang;
#X msg 216 182 1 -1 \, 2 -1 \, 3 -1 \, 4 -1 \, 5 -1 \, 6 -1;
#X obj 126 182 inlet;
#X connect 2 0 4 0;
#X connect 3 0 2 0;
#X connect 4 0 1 0;
#X connect 5 0 3 0;
#X connect 6 0 1 1;
#X connect 7 0 1 1;
#X scroll 1;
