#N canvas 270 146 1019 670.062 10;
#X obj 21 -282 pack f f;
#X msg 21 -260 \$2 \$1;
#X obj 21 -238 route 0;
#X msg 60 -215 \$2;
#X obj 96 -344 sel 40 41 46 47 48 49;
#X obj 281 -288 + 1;
#X floatatom 118 -240 5 0 0 0 prog - -, f 5;
#X msg 460 -73 \$1 1 \, \$1 2 \, \$1 3 \, \$1 4 \, \$1 5 \, \$1 6;
#X obj 460 -51 pgmout;
#X text 507 -52 => GM synth;
#X text 17 -384 Dial in program changes using the up/down and function
buttons of the Guitar Wing on Pd MIDI In #2;
#X obj 258 -325 - 1;
#X obj 375 -240 pack f f;
#X obj 158 -240 tgl 15 0 empty empty pb 17 7 0 10 -262144 -1 -1 0 37
;
#X floatatom 460 -239 5 0 0 0 - - -, f 5;
#X obj 375 -176 sel 0;
#X msg 375 -154 0;
#X floatatom 460 -174 5 0 0 0 - - -, f 5;
#X obj 460 -129 bendout;
#X msg 460 -152 \$1 1 \, \$1 2 \, \$1 3 \, \$1 4 \, \$1 5 \, \$1 6
;
#X obj 460 -198 *;
#X obj 538 -301 inlet;
#X obj 375 -132 t f f;
#X obj 375 -218 spigot;
#X obj 460 -218 spigot;
#X obj 538 -239 t f f f;
#X text 324 -336 panic button (1st pad);
#X text 153 -126 GM patches;
#X dropdown 90 -219 10 0 0 0 - - -, f 10;
#X dropdown 173 -219 0 0 0 0 - - -;
#X obj 202 -61 list prepend names;
#X obj 202 -39 list trim;
#X obj 18 -60 list prepend names;
#X obj 18 -38 list trim;
#X obj 87 -129 loadbang;
#X floatatom 6 -164 5 0 0 0 - - -, f 5;
#X obj 6 -143 * 8;
#X obj 378 -51 t f f;
#X obj 378 -29 div 8;
#X floatatom 378 -7 5 0 0 0 - - -, f 5;
#X msg 378 14 set \$1;
#X obj 378 -72 - 1;
#X msg 426 14 set \$1;
#X msg 137 -322 8;
#X msg 157 -322 -8;
#X msg 178 -322 0;
#X msg 198 -322 127;
#X obj 423 -359 s ez-off;
#X obj 487 -332 +;
#X obj 610 -332 f;
#X msg 507 -364 -12;
#X msg 487 -364 12;
#X obj 550 -367 s ez-transpose;
#X text 457 -388 transpose +/-1 octave (2nd and 3rd pad);
#X obj 195 -240 bng 15 250 50 0 empty empty +1\ oct 17 7 0 10 -262144
-1 -1;
#X obj 256 -240 bng 15 250 50 0 empty empty -1\ oct 17 7 0 10 -262144
-1 -1;
#X obj 96 -296 +;
#X obj 217 -296 f;
#X obj 123 -296 max 0;
#X obj 162 -296 min 127;
#X msg 96 -322 1;
#X msg 116 -322 -1;
#X obj 134 -29 nbx 5 14 0 127 0 1 empty empty empty 0 -8 0 10 -262144
-1 -1 25 256 0;
#X obj 118 -190 t f f f;
#X obj 514 -332 max -24;
#X obj 565 -332 min 48;
#X obj 538 -279 * 16;
#X obj 256 -258 tgl 15 1 empty empty thru 17 7 0 10 -262144 -1 -1 0
1;
#X obj 195 -190 s gw-map;
#X obj 375 -260 spigot;
#X obj 393 -282 r gw-map;
#X obj 21 -303 spigot;
#X obj 26 -325 r gw-map;
#X obj 460 -260 spigot;
#X obj 478 -282 r gw-map;
#X obj 256 -190 s gw-thru;
#N canvas 401 274 592 439.062 gw-thru 0;
#X obj 14 166 pack f f;
#X obj 14 145 spigot;
#X obj 46 123 r gw-thru;
#X obj 14 188 route 1 2 3;
#X obj 169 145 spigot;
#X obj 201 123 r gw-thru;
#X obj 169 237 spigot;
#X obj 201 215 r gw-thru;
#X obj 269 237 spigot;
#X obj 301 215 r gw-thru;
#X text 12 15 This simply disables all local processing and instead
passes through all MIDI output from the Wing on MIDI output #3 \, so
that it can be used inside a DAW. NOTE: We also filter out the note
messages associated with the faders of the Wing \, so that these don't
get in the way of MIDi learn inside the DAW.;
#X obj 14 104 notein 33;
#X obj 169 104 ctlin 3 33;
#X obj 77 217 noteout 17;
#X obj 169 167 ctlout 3 17;
#X obj 169 196 ctlin 1 33;
#X obj 269 196 ctlin 2 33;
#X obj 169 259 ctlout 1 17;
#X obj 269 259 ctlout 2 17;
#X connect 0 0 3 0;
#X connect 1 0 0 0;
#X connect 2 0 1 1;
#X connect 3 3 13 0;
#X connect 4 0 14 0;
#X connect 5 0 4 1;
#X connect 6 0 17 0;
#X connect 7 0 6 1;
#X connect 8 0 18 0;
#X connect 9 0 8 1;
#X connect 11 0 1 0;
#X connect 11 1 0 1;
#X connect 12 0 4 0;
#X connect 15 0 6 0;
#X connect 16 0 8 0;
#X restore 233 -11 pd gw-thru;
#X obj 21 -344 notein 33;
#X obj 375 -302 notein 33;
#X obj 460 -301 ctlin 3 33;
#X obj 375 -110 ctlout 3 33;
#X obj 134 -3 spigot 1;
#X msg 204 19 0;
#X obj 134 19 t f b;
#X obj 195 -258 tgl 15 1 empty empty enable 17 7 0 10 -262144 -1 -1
1 1;
#X obj 358 -381 sel 36 37 38 39;
#X obj 588 -301 ctlin 36 33;
#X obj 375 -198 route 3 36;
#N canvas 853 173 594 472.062 js+ 0;
#X text 13 14 special Jamstick+ controls to change the GM patch (Enter+Up/Down)
;
#X obj 17 58 ctlin 16 1;
#X obj 17 80 tgl 15 0 empty empty empty 17 7 0 10 -262144 -1 -1 0 127
;
#X obj 96 58 ctlin 80 1;
#X obj 96 80 sel 0;
#X msg 123 102 1;
#X obj 123 124 spigot;
#X obj 123 176 outlet;
#X obj 176 80 sel 0;
#X obj 203 124 spigot;
#X msg 203 102 -1;
#X obj 176 58 ctlin 81 1;
#X connect 1 0 2 0;
#X connect 2 0 6 1;
#X connect 2 0 9 1;
#X connect 3 0 4 0;
#X connect 4 1 5 0;
#X connect 5 0 6 0;
#X connect 6 0 7 0;
#X connect 8 1 10 0;
#X connect 9 0 7 0;
#X connect 10 0 9 0;
#X connect 11 0 8 0;
#X restore 69 -149 pd js+;
#X obj 492 -24 r pgm-change;
#X obj 492 -2 - 1;
#X obj 18 -82 symlist GM-families;
#X obj 202 -83 symlist GM-patches;
#X obj 87 -107 t b b b;
#X connect 0 0 1 0;
#X connect 1 0 2 0;
#X connect 2 1 3 0;
#X connect 3 0 4 0;
#X connect 4 0 60 0;
#X connect 4 1 61 0;
#X connect 4 2 43 0;
#X connect 4 3 44 0;
#X connect 4 4 45 0;
#X connect 4 5 46 0;
#X connect 4 6 85 0;
#X connect 5 0 6 0;
#X connect 6 0 63 0;
#X connect 7 0 8 0;
#X connect 11 0 57 1;
#X connect 12 0 23 0;
#X connect 13 0 15 0;
#X connect 14 0 24 0;
#X connect 15 0 16 0;
#X connect 16 0 22 0;
#X connect 17 0 19 0;
#X connect 19 0 18 0;
#X connect 20 0 17 0;
#X connect 21 0 66 0;
#X connect 22 0 80 0;
#X connect 22 1 14 0;
#X connect 23 0 87 0;
#X connect 24 0 20 0;
#X connect 25 0 20 1;
#X connect 25 1 23 1;
#X connect 25 2 24 1;
#X connect 28 0 35 0;
#X connect 29 0 57 0;
#X connect 30 0 31 0;
#X connect 31 0 29 0;
#X connect 32 0 33 0;
#X connect 33 0 28 0;
#X connect 34 0 93 0;
#X connect 35 0 36 0;
#X connect 36 0 29 0;
#X connect 37 0 38 0;
#X connect 37 1 42 0;
#X connect 38 0 39 0;
#X connect 39 0 40 0;
#X connect 40 0 28 0;
#X connect 41 0 37 0;
#X connect 42 0 29 0;
#X connect 43 0 56 0;
#X connect 44 0 56 0;
#X connect 45 0 57 0;
#X connect 46 0 57 0;
#X connect 48 0 64 0;
#X connect 49 0 48 1;
#X connect 49 0 52 0;
#X connect 50 0 48 0;
#X connect 51 0 48 0;
#X connect 54 0 51 0;
#X connect 55 0 50 0;
#X connect 56 0 58 0;
#X connect 57 0 5 0;
#X connect 57 0 56 1;
#X connect 57 0 62 0;
#X connect 58 0 59 0;
#X connect 59 0 57 0;
#X connect 60 0 56 0;
#X connect 61 0 56 0;
#X connect 62 0 81 0;
#X connect 63 0 41 0;
#X connect 63 1 11 0;
#X connect 63 2 7 0;
#X connect 64 0 65 0;
#X connect 65 0 49 0;
#X connect 66 0 25 0;
#X connect 67 0 75 0;
#X connect 69 0 12 0;
#X connect 70 0 69 1;
#X connect 71 0 0 0;
#X connect 72 0 71 1;
#X connect 73 0 14 0;
#X connect 74 0 73 1;
#X connect 77 0 71 0;
#X connect 77 1 0 1;
#X connect 78 0 69 0;
#X connect 78 1 12 1;
#X connect 79 0 73 0;
#X connect 81 0 83 0;
#X connect 82 0 81 1;
#X connect 83 0 57 0;
#X connect 83 1 82 0;
#X connect 84 0 68 0;
#X connect 85 1 54 0;
#X connect 85 2 55 0;
#X connect 85 3 47 0;
#X connect 86 0 73 0;
#X connect 87 0 13 0;
#X connect 87 1 15 0;
#X connect 87 1 13 0;
#X connect 88 0 56 0;
#X connect 89 0 90 0;
#X connect 90 0 57 0;
#X connect 91 0 32 0;
#X connect 92 0 30 0;
#X connect 93 0 62 0;
#X connect 93 1 92 0;
#X connect 93 2 91 0;
#X coords 0 -1 1 1 231 60 1 83 -261;
